<svg viewBox="0 0 24 24" role="presentation" aria-hidden="true" focusable="false" style="fill: currentcolor; height: 1.2em; width: 1.2em;"><path d="M10.5 0a.5.5 0 0 0-.5.5v7.003A.498.498 0 0 1 9.51 8H8V.5a.5.5 0 1 0-1 0V8H5.49A.499.499 0 0 1 5 7.503V.5a.5.5 0 1 0-1 0v7.003C4 8.327 4.672 9 5.49 9H7v5c0 .03.012.057.017.086A1.49 1.49 0 0 0 6 15.498v7.004C6 23.33 6.672 24 7.5 24c.831 0 1.5-.67 1.5-1.498v-7.004c0-.658-.427-1.21-1.017-1.412.005-.029.017-.055.017-.086V9h1.51A1.5 1.5 0 0 0 11 7.503V.5a.5.5 0 0 0-.5-.5zM8 15.498v7.004a.496.496 0 0 1-.5.498.499.499 0 0 1-.5-.498v-7.004c0-.277.221-.498.5-.498.277 0 .5.223.5.498zM19.5 0h-2.003C16.097 0 15 1.071 15 2.5v7c0 1.428 1.096 2.5 2.497 2.5H19v2.092a1.489 1.489 0 0 0-.5-.092c-.831 0-1.5.67-1.5 1.498v7.004c0 .828.672 1.498 1.5 1.498.831 0 1.5-.67 1.5-1.498V0h-.5zm-2.003 11C16.643 11 16 10.37 16 9.5v-7c0-.87.645-1.5 1.497-1.5H19v10h-1.503zM19 22.502a.496.496 0 0 1-.5.498.499.499 0 0 1-.5-.498v-7.004c0-.277.221-.498.5-.498.277 0 .5.223.5.498v7.004z" fill-rule="evenodd"></path></svg>